<?xml version="1.0" encoding="UTF-8" standalone="no"?>
<svg
   xmlns:dc="http://purl.org/dc/elements/1.1/"
   xmlns:cc="http://creativecommons.org/ns#"
   xmlns:rdf="http://www.w3.org/1999/02/22-rdf-syntax-ns#"
   xmlns:svg="http://www.w3.org/2000/svg"
   xmlns="http://www.w3.org/2000/svg"
   xmlns:xlink="http://www.w3.org/1999/xlink"
   xmlns:sodipodi="http://sodipodi.sourceforge.net/DTD/sodipodi-0.dtd"
   xmlns:inkscape="http://www.inkscape.org/namespaces/inkscape"
   width="210mm"
   height="297mm"
   viewBox="0 0 210 297"
   version="1.1"
   id="svg6245"
   inkscape:version="1.0.2-2 (e86c870879, 2021-01-15)"
   sodipodi:docname="CardMat.svg"
   inkscape:export-filename="CardMat.png"
   inkscape:export-xdpi="96.128403"
   inkscape:export-ydpi="96.128403">
  <defs
     id="defs6239">
    <linearGradient
       inkscape:collect="always"
       id="linearGradient6830">
      <stop
         style="stop-color:#616161;stop-opacity:1"
         offset="0"
         id="stop6824" />
      <stop
         style="stop-color:#a6a6a6;stop-opacity:1"
         offset="0.46775988"
         id="stop6826" />
      <stop
         style="stop-color:#616161;stop-opacity:1"
         offset="1"
         id="stop6828" />
    </linearGradient>
    <linearGradient
       inkscape:collect="always"
       id="linearGradient6814">
      <stop
         style="stop-color:#a7a7a7;stop-opacity:1;"
         offset="0"
         id="stop6810" />
      <stop
         style="stop-color:#d3d3d3;stop-opacity:1"
         offset="0.46775988"
         id="stop6818" />
      <stop
         style="stop-color:#a7a7a7;stop-opacity:1"
         offset="1"
         id="stop6812" />
    </linearGradient>
    <linearGradient
       inkscape:collect="always"
       xlink:href="#linearGradient6814"
       id="linearGradient6816"
       x1="103.56548"
       y1="144.3869"
       x2="13.607142"
       y2="223.7619"
       gradientUnits="userSpaceOnUse"
       gradientTransform="translate(53.672619,-86.934524)" />
    <linearGradient
       inkscape:collect="always"
       xlink:href="#linearGradient6830"
       id="linearGradient6822"
       gradientUnits="userSpaceOnUse"
       gradientTransform="matrix(0.78054103,0,0,0.78054103,-189.82198,190.35821)"
       x1="103.56548"
       y1="144.3869"
       x2="13.607142"
       y2="223.7619" />
    <linearGradient
       inkscape:collect="always"
       xlink:href="#linearGradient6830"
       id="linearGradient6865"
       gradientUnits="userSpaceOnUse"
       gradientTransform="matrix(0.78054103,0,0,0.78054103,5.8587283,256.69773)"
       x1="103.56548"
       y1="144.3869"
       x2="13.607142"
       y2="223.7619" />
    <linearGradient
       inkscape:collect="always"
       xlink:href="#linearGradient6814"
       id="linearGradient7727"
       gradientUnits="userSpaceOnUse"
       gradientTransform="matrix(0.25328507,0,0,0.13867972,-121.66186,59.080629)"
       x1="103.56548"
       y1="144.3869"
       x2="13.607142"
       y2="223.7619" />
  </defs>
  <sodipodi:namedview
     id="base"
     pagecolor="#ffffff"
     bordercolor="#666666"
     borderopacity="1.0"
     inkscape:pageopacity="0.0"
     inkscape:pageshadow="2"
     inkscape:zoom="0.9899495"
     inkscape:cx="-558.36145"
     inkscape:cy="1903.7744"
     inkscape:document-units="mm"
     inkscape:current-layer="layer1"
     inkscape:document-rotation="0"
     showgrid="false"
     inkscape:window-width="1920"
     inkscape:window-height="1017"
     inkscape:window-x="-8"
     inkscape:window-y="-8"
     inkscape:window-maximized="1"
     inkscape:snap-global="false" />
  <metadata
     id="metadata6242">
    <rdf:RDF>
      <cc:Work
         rdf:about="">
        <dc:format>image/svg+xml</dc:format>
        <dc:type
           rdf:resource="http://purl.org/dc/dcmitype/StillImage" />
        <dc:title />
      </cc:Work>
    </rdf:RDF>
  </metadata>
  <g
     inkscape:label="Layer 1"
     inkscape:groupmode="layer"
     id="layer1">
    <rect
       style="fill:url(#linearGradient6816);fill-opacity:1;stroke:#000000;stroke-width:1.86303;stroke-linecap:round;stroke-miterlimit:4;stroke-dasharray:none;stroke-opacity:1;stop-color:#000000"
       id="rect6808"
       width="200.55939"
       height="200.55939"
       x="27.476254"
       y="-13.345183"
       ry="17.289602" />
    <rect
       style="fill:url(#linearGradient6822);fill-opacity:1;stroke:#000000;stroke-width:1.45417;stroke-linecap:round;stroke-miterlimit:4;stroke-dasharray:none;stroke-opacity:1;stop-color:#000000"
       id="rect6820"
       width="156.54483"
       height="156.54483"
       x="-210.26932"
       y="247.79771"
       ry="13.495244"
       inkscape:export-filename="YouLose.png"
       inkscape:export-xdpi="96.128403"
       inkscape:export-ydpi="96.128403" />
    <text
       xml:space="preserve"
       style="font-weight:bold;font-size:14.6514px;line-height:1.25;font-family:monospace;-inkscape-font-specification:'monospace Bold';stroke-width:0.784889;fill:#000000;fill-opacity:1;"
       x="-161.48221"
       y="275.15314"
       id="text6834"
       inkscape:export-filename="YouLose.png"
       inkscape:export-xdpi="96.128403"
       inkscape:export-ydpi="96.128403"><tspan
         sodipodi:role="line"
         id="tspan6832"
         x="-161.48221"
         y="275.15314"
         style="font-style:normal;font-variant:normal;font-weight:bold;font-stretch:normal;font-family:Impact;-inkscape-font-specification:'Impact Bold';fill:#000000;fill-opacity:1;stroke-width:0.784889;">YOU LOSE!</tspan></text>
    <rect
       style="fill:url(#linearGradient6865);fill-opacity:1;stroke:#000000;stroke-width:1.45417;stroke-linecap:round;stroke-miterlimit:4;stroke-dasharray:none;stroke-opacity:1;stop-color:#000000"
       id="rect6859"
       width="156.54483"
       height="156.54483"
       x="-14.588601"
       y="314.13724"
       ry="13.495244"
       inkscape:export-filename="YouWin.png"
       inkscape:export-xdpi="96.128403"
       inkscape:export-ydpi="96.128403" />
    <text
       xml:space="preserve"
       style="font-weight:bold;font-size:14.6514px;line-height:1.25;font-family:monospace;-inkscape-font-specification:'monospace Bold';stroke-width:0.784889;fill:#000000;fill-opacity:1;"
       x="38.78804"
       y="339.40652"
       id="text6863"
       inkscape:export-filename="YouWin.png"
       inkscape:export-xdpi="96.128403"
       inkscape:export-ydpi="96.128403"><tspan
         sodipodi:role="line"
         id="tspan6861"
         x="38.78804"
         y="339.40652"
         style="font-style:normal;font-variant:normal;font-weight:bold;font-stretch:normal;font-family:Impact;-inkscape-font-specification:'Impact Bold';fill:#000000;fill-opacity:1;stroke-width:0.784889;">YOU WIN!</tspan></text>
    <rect
       style="fill:url(#linearGradient7727);fill-opacity:1;stroke:#000000;stroke-width:0.349165;stroke-linecap:round;stroke-miterlimit:4;stroke-dasharray:none;stroke-opacity:1;stop-color:#000000"
       id="rect7725"
       width="50.798695"
       height="27.81352"
       x="-128.297"
       y="69.285973"
       ry="2.3977172"
       inkscape:export-filename="StatBox.png"
       inkscape:export-xdpi="96.128403"
       inkscape:export-ydpi="96.128403" />
    <path
       id="rect7731"
       style="font-variation-settings:normal;opacity:1;vector-effect:none;fill:#ffffff;fill-opacity:1;stroke:#000000;stroke-width:5.55802;stroke-linecap:butt;stroke-linejoin:miter;stroke-miterlimit:4;stroke-dasharray:none;stroke-dashoffset:0;stroke-opacity:1;stop-color:#000000;stop-opacity:1"
       d="M -495.45703 1957.5508 A 49.022188 49.022188 0 0 0 -542.03906 1991.2988 A 49.022188 49.022188 0 0 0 -579.82227 1973.5117 A 49.022188 49.022188 0 0 0 -616.39258 1989.8887 A 49.022188 49.022188 0 0 0 -657.3457 1967.8105 A 49.022188 49.022188 0 0 0 -698.08008 1989.5605 A 49.022188 49.022188 0 0 0 -721.1875 1983.7715 A 49.022188 49.022188 0 0 0 -747.04883 1991.1484 A 49.022188 49.022188 0 0 0 -787.31055 1970.0898 A 49.022188 49.022188 0 0 0 -821.98047 1984.4551 A 56.568542 56.568542 0 0 0 -857.61914 1971.8184 A 56.568542 56.568542 0 0 0 -891.72461 1983.2559 A 62.629459 62.629459 0 0 0 -941.46289 1958.6855 A 62.629459 62.629459 0 0 0 -1002.7637 2008.4844 A 62.629459 62.629459 0 0 0 -1022.3145 2005.3555 A 62.629459 62.629459 0 0 0 -1031.373 2006.0156 A 56.568542 56.568542 0 0 0 -1082.8828 1972.8281 A 56.568542 56.568542 0 0 0 -1139.4512 2029.3965 A 56.568542 56.568542 0 0 0 -1126.3281 2065.625 A 56.568542 56.568542 0 0 0 -1141.4727 2104.1484 A 56.568542 56.568542 0 0 0 -1124.1914 2144.8477 A 45.456863 45.456863 0 0 0 -1136.4219 2175.8691 A 45.456863 45.456863 0 0 0 -1090.9648 2221.3242 A 45.456863 45.456863 0 0 0 -1053.873 2202.1445 A 65.659913 65.659913 0 0 0 -1020.9043 2215.8184 A 60.60915 60.60915 0 0 0 -972.77734 2239.5898 A 60.60915 60.60915 0 0 0 -918.85742 2206.6582 A 56.568542 56.568542 0 0 0 -880.85352 2221.3262 A 56.568542 56.568542 0 0 0 -866.54492 2219.4844 A 56.568542 56.568542 0 0 0 -829.33594 2233.4473 A 56.568542 56.568542 0 0 0 -782.95898 2209.2676 A 49.022188 49.022188 0 0 0 -778.19141 2209.5 A 49.022188 49.022188 0 0 0 -765.93945 2207.9453 A 49.022188 49.022188 0 0 0 -722.32812 2234.582 A 49.022188 49.022188 0 0 0 -722.28125 2234.582 A 49.022188 49.022188 0 0 0 -675.66992 2200.5996 A 49.022188 49.022188 0 0 0 -645.94531 2210.6426 A 49.022188 49.022188 0 0 0 -628.75586 2207.5273 A 49.022188 49.022188 0 0 0 -585.52148 2233.4434 A 49.022188 49.022188 0 0 0 -537.76758 2195.498 A 49.022188 49.022188 0 0 0 -495.45703 2219.7617 A 49.022188 49.022188 0 0 0 -460.43359 2205.0391 A 49.022188 49.022188 0 0 0 -419.07422 2227.7422 A 49.022188 49.022188 0 0 0 -372.00391 2192.4121 A 49.022188 49.022188 0 0 0 -339.27148 2204.9414 A 49.022188 49.022188 0 0 0 -313.63281 2197.7031 A 49.022188 49.022188 0 0 0 -274.28711 2217.4824 A 49.022188 49.022188 0 0 0 -225.26562 2168.459 A 49.022188 49.022188 0 0 0 -241.08398 2132.3945 A 49.022188 49.022188 0 0 0 -222.98633 2094.3574 A 49.022188 49.022188 0 0 0 -223.43555 2087.7266 A 49.022188 49.022188 0 0 0 -208.16406 2052.1738 A 49.022188 49.022188 0 0 0 -252.78516 2003.3516 A 49.022188 49.022188 0 0 0 -300.50977 1965.5312 A 49.022188 49.022188 0 0 0 -330.44336 1975.7305 A 49.022188 49.022188 0 0 0 -364.35156 1962.1113 A 49.022188 49.022188 0 0 0 -400.28516 1977.7871 A 49.022188 49.022188 0 0 0 -424.77539 1971.2305 A 49.022188 49.022188 0 0 0 -453.79297 1980.7422 A 49.022188 49.022188 0 0 0 -495.45703 1957.5508 z "
       transform="scale(0.26458333)"
       inkscape:export-xdpi="96.128403"
       inkscape:export-ydpi="96.128403" />
  </g>
</svg>
