<?xml version="1.0" encoding="UTF-8" standalone="no"?>
<svg
   xmlns:dc="http://purl.org/dc/elements/1.1/"
   xmlns:cc="http://creativecommons.org/ns#"
   xmlns:rdf="http://www.w3.org/1999/02/22-rdf-syntax-ns#"
   xmlns:svg="http://www.w3.org/2000/svg"
   xmlns="http://www.w3.org/2000/svg"
   xmlns:xlink="http://www.w3.org/1999/xlink"
   xmlns:sodipodi="http://sodipodi.sourceforge.net/DTD/sodipodi-0.dtd"
   xmlns:inkscape="http://www.inkscape.org/namespaces/inkscape"
   width="210mm"
   height="297mm"
   viewBox="0 0 210 297"
   version="1.1"
   id="svg6245"
   inkscape:version="1.0.2-2 (e86c870879, 2021-01-15)"
   sodipodi:docname="CardMat.svg"
   inkscape:export-filename="CardMat.png"
   inkscape:export-xdpi="96.128403"
   inkscape:export-ydpi="96.128403">
  <defs
     id="defs6239">
    <linearGradient
       inkscape:collect="always"
       id="linearGradient6830">
      <stop
         style="stop-color:#616161;stop-opacity:1"
         offset="0"
         id="stop6824" />
      <stop
         style="stop-color:#a6a6a6;stop-opacity:1"
         offset="0.46775988"
         id="stop6826" />
      <stop
         style="stop-color:#616161;stop-opacity:1"
         offset="1"
         id="stop6828" />
    </linearGradient>
    <linearGradient
       inkscape:collect="always"
       id="linearGradient6814">
      <stop
         style="stop-color:#a7a7a7;stop-opacity:1;"
         offset="0"
         id="stop6810" />
      <stop
         style="stop-color:#d3d3d3;stop-opacity:1"
         offset="0.46775988"
         id="stop6818" />
      <stop
         style="stop-color:#a7a7a7;stop-opacity:1"
         offset="1"
         id="stop6812" />
    </linearGradient>
    <linearGradient
       inkscape:collect="always"
       xlink:href="#linearGradient6814"
       id="linearGradient6816"
       x1="103.56548"
       y1="144.3869"
       x2="13.607142"
       y2="223.7619"
       gradientUnits="userSpaceOnUse"
       gradientTransform="translate(53.672619,-86.934524)" />
    <linearGradient
       inkscape:collect="always"
       xlink:href="#linearGradient6830"
       id="linearGradient6822"
       gradientUnits="userSpaceOnUse"
       gradientTransform="matrix(0.78054103,0,0,0.78054103,-189.82198,190.35821)"
       x1="103.56548"
       y1="144.3869"
       x2="13.607142"
       y2="223.7619" />
    <linearGradient
       inkscape:collect="always"
       xlink:href="#linearGradient6830"
       id="linearGradient6865"
       gradientUnits="userSpaceOnUse"
       gradientTransform="matrix(0.78054103,0,0,0.78054103,5.8587283,256.69773)"
       x1="103.56548"
       y1="144.3869"
       x2="13.607142"
       y2="223.7619" />
    <linearGradient
       inkscape:collect="always"
       xlink:href="#linearGradient6814"
       id="linearGradient7727"
       gradientUnits="userSpaceOnUse"
       gradientTransform="matrix(0.25328507,0,0,0.13867972,-121.66186,59.080629)"
       x1="103.56548"
       y1="144.3869"
       x2="13.607142"
       y2="223.7619" />
  </defs>
  <sodipodi:namedview
     id="base"
     pagecolor="#ffffff"
     bordercolor="#666666"
     borderopacity="1.0"
     inkscape:pageopacity="0.0"
     inkscape:pageshadow="2"
     inkscape:zoom="0.49497475"
     inkscape:cx="9.9216593"
     inkscape:cy="1245.2479"
     inkscape:document-units="mm"
     inkscape:current-layer="layer1"
     inkscape:document-rotation="0"
     showgrid="false"
     inkscape:window-width="1920"
     inkscape:window-height="1017"
     inkscape:window-x="-8"
     inkscape:window-y="-8"
     inkscape:window-maximized="1" />
  <metadata
     id="metadata6242">
    <rdf:RDF>
      <cc:Work
         rdf:about="">
        <dc:format>image/svg+xml</dc:format>
        <dc:type
           rdf:resource="http://purl.org/dc/dcmitype/StillImage" />
        <dc:title></dc:title>
      </cc:Work>
    </rdf:RDF>
  </metadata>
  <g
     inkscape:label="Layer 1"
     inkscape:groupmode="layer"
     id="layer1">
    <rect
       style="fill:url(#linearGradient6816);fill-opacity:1;stroke:#000000;stroke-width:1.86303;stroke-linecap:round;stroke-miterlimit:4;stroke-dasharray:none;stroke-opacity:1;stop-color:#000000"
       id="rect6808"
       width="200.55939"
       height="200.55939"
       x="27.476254"
       y="-13.345183"
       ry="17.289602" />
    <rect
       style="fill:url(#linearGradient6822);fill-opacity:1;stroke:#000000;stroke-width:1.45417;stroke-linecap:round;stroke-miterlimit:4;stroke-dasharray:none;stroke-opacity:1;stop-color:#000000"
       id="rect6820"
       width="156.54483"
       height="156.54483"
       x="-210.26932"
       y="247.79771"
       ry="13.495244"
       inkscape:export-filename="YouLose.png"
       inkscape:export-xdpi="96.128403"
       inkscape:export-ydpi="96.128403" />
    <text
       xml:space="preserve"
       style="font-weight:bold;font-size:14.6514px;line-height:1.25;font-family:monospace;-inkscape-font-specification:'monospace Bold';stroke-width:0.784889;fill:#000000;fill-opacity:1;"
       x="-161.48221"
       y="275.15314"
       id="text6834"
       inkscape:export-filename="YouLose.png"
       inkscape:export-xdpi="96.128403"
       inkscape:export-ydpi="96.128403"><tspan
         sodipodi:role="line"
         id="tspan6832"
         x="-161.48221"
         y="275.15314"
         style="font-style:normal;font-variant:normal;font-weight:bold;font-stretch:normal;font-family:Impact;-inkscape-font-specification:'Impact Bold';fill:#000000;fill-opacity:1;stroke-width:0.784889;">YOU LOSE!</tspan></text>
    <rect
       style="fill:url(#linearGradient6865);fill-opacity:1;stroke:#000000;stroke-width:1.45417;stroke-linecap:round;stroke-miterlimit:4;stroke-dasharray:none;stroke-opacity:1;stop-color:#000000"
       id="rect6859"
       width="156.54483"
       height="156.54483"
       x="-14.588601"
       y="314.13724"
       ry="13.495244"
       inkscape:export-filename="YouWin.png"
       inkscape:export-xdpi="96.128403"
       inkscape:export-ydpi="96.128403" />
    <text
       xml:space="preserve"
       style="font-weight:bold;font-size:14.6514px;line-height:1.25;font-family:monospace;-inkscape-font-specification:'monospace Bold';stroke-width:0.784889;fill:#000000;fill-opacity:1;"
       x="38.78804"
       y="339.40652"
       id="text6863"
       inkscape:export-filename="YouWin.png"
       inkscape:export-xdpi="96.128403"
       inkscape:export-ydpi="96.128403"><tspan
         sodipodi:role="line"
         id="tspan6861"
         x="38.78804"
         y="339.40652"
         style="font-style:normal;font-variant:normal;font-weight:bold;font-stretch:normal;font-family:Impact;-inkscape-font-specification:'Impact Bold';fill:#000000;fill-opacity:1;stroke-width:0.784889;">YOU WIN!</tspan></text>
    <rect
       style="fill:url(#linearGradient7727);fill-opacity:1;stroke:#000000;stroke-width:0.349165;stroke-linecap:round;stroke-miterlimit:4;stroke-dasharray:none;stroke-opacity:1;stop-color:#000000"
       id="rect7725"
       width="50.798695"
       height="27.81352"
       x="-128.297"
       y="69.285973"
       ry="2.3977172"
       inkscape:export-filename="StatBox.png"
       inkscape:export-xdpi="96.128403"
       inkscape:export-ydpi="96.128403" />
    <path
       id="rect7731"
       style="font-variation-settings:normal;opacity:1;vector-effect:none;fill:#ffffff;fill-opacity:1;stroke:#000000;stroke-width:1.47056;stroke-linecap:butt;stroke-linejoin:miter;stroke-miterlimit:4;stroke-dasharray:none;stroke-dashoffset:0;stroke-opacity:1;stop-color:#000000;stop-opacity:1"
       d="m -191.1034,591.23326 a 12.970454,12.970454 0 0 0 12.33241,-8.99116 12.970454,12.970454 0 0 0 7.86467,2.65684 12.970454,12.970454 0 0 0 4.54821,-0.82379 12.970454,12.970454 0 0 0 11.43863,6.85659 12.970454,12.970454 0 0 0 12.63509,-10.03949 12.970454,12.970454 0 0 0 11.19455,6.41975 12.970454,12.970454 0 0 0 9.26702,-3.8956 12.970454,12.970454 0 0 0 10.9426,6.00713 12.970454,12.970454 0 0 0 12.4543,-9.34808 12.970454,12.970454 0 0 0 8.660474,3.31529 12.970454,12.970454 0 0 0 6.783393,-1.91528 12.970454,12.970454 0 0 0 10.410124,5.2332 12.970454,12.970454 0 0 0 12.970449,-12.97043 12.970454,12.970454 0 0 0 -4.185453,-9.54202 12.970454,12.970454 0 0 0 4.78849,-10.06427 12.970454,12.970454 0 0 0 -0.11898,-1.75403 12.970454,12.970454 0 0 0 4.040539,-9.4067 12.970454,12.970454 0 0 0 -11.805769,-12.91794 12.970454,12.970454 0 0 0 -12.62722,-10.00655 12.970454,12.970454 0 0 0 -7.91979,2.69883 12.970454,12.970454 0 0 0 -8.971911,-3.60369 12.970454,12.970454 0 0 0 -9.507306,4.14754 12.970454,12.970454 0 0 0 -6.47953,-1.73449 12.970454,12.970454 0 0 0 -7.67776,2.51659 12.970454,12.970454 0 0 0 -11.02367,-6.13631 12.970454,12.970454 0 0 0 -12.32483,8.92905 12.970454,12.970454 0 0 0 -9.99661,-4.70598 12.970454,12.970454 0 0 0 -9.67586,4.333 12.970454,12.970454 0 0 0 -10.83558,-5.8412 12.970454,12.970454 0 0 0 -10.77755,5.75431 12.970454,12.970454 0 0 0 -6.11415,-1.53153 12.970454,12.970454 0 0 0 -6.842,1.95174 12.970454,12.970454 0 0 0 -10.65304,-5.57147 12.970454,12.970454 0 0 0 -12.97044,12.97044 12.970454,12.970454 0 0 0 7.00239,11.5159 12.970454,12.970454 0 0 0 -3.08114,8.39249 12.970454,12.970454 0 0 0 2.70467,7.92737 12.970454,12.970454 0 0 0 -4.21287,9.56738 12.970454,12.970454 0 0 0 12.97045,12.97043 12.970454,12.970454 0 0 0 3.24152,-0.41144 12.970454,12.970454 0 0 0 11.53894,7.04758 12.970454,12.970454 0 0 0 0.0125,0 z"
       inkscape:export-filename="Textbox.png"
       inkscape:export-xdpi="96.128403"
       inkscape:export-ydpi="96.128403" />
  </g>
</svg>
